<?xml version="1.0" encoding="utf-8"?>
<!-- Generator: Adobe Illustrator 23.0.4, SVG Export Plug-In . SVG Version: 6.00 Build 0)  -->
<svg version="1.1" id="Layer_1" xmlns="http://www.w3.org/2000/svg" xmlns:xlink="http://www.w3.org/1999/xlink" x="0px" y="0px"
	 viewBox="0 0 200 200" style="enable-background:new 0 0 200 200;" xml:space="preserve">
<style type="text/css">
	.st0{fill:#D85A24;}
</style>
<g>
	<g>
		<path class="st0" d="M144.81,0H55.19C24.76,0,0,24.76,0,55.19v89.61C0,175.24,24.76,200,55.19,200h89.61
			c30.43,0,55.19-24.76,55.19-55.19V55.19C200,24.76,175.24,0,144.81,0z M182.26,144.81c0,20.65-16.8,37.45-37.45,37.45H55.19
			c-20.65,0-37.45-16.8-37.45-37.45V55.19c0-20.65,16.8-37.45,37.45-37.45h89.61c20.65,0,37.45,16.8,37.45,37.45L182.26,144.81
			L182.26,144.81z"/>
		<path class="st0" d="M100,48.47c-28.42,0-51.53,23.12-51.53,51.53c0,28.42,23.12,51.53,51.53,51.53s51.53-23.12,51.53-51.53
			C151.53,71.59,128.42,48.47,100,48.47z M100,133.79c-18.63,0-33.79-15.16-33.79-33.79c0-18.63,15.16-33.79,33.79-33.79
			s33.79,15.16,33.79,33.79C133.79,118.63,118.63,133.79,100,133.79z"/>
		<path class="st0" d="M153.7,33.42c-3.42,0-6.78,1.38-9.19,3.81c-2.43,2.41-3.82,5.77-3.82,9.2c0,3.42,1.4,6.78,3.82,9.2
			c2.41,2.41,5.77,3.81,9.19,3.81c3.43,0,6.78-1.4,9.2-3.81c2.43-2.43,3.81-5.78,3.81-9.2c0-3.43-1.38-6.79-3.81-9.2
			C160.49,34.8,157.13,33.42,153.7,33.42z"/>
	</g>
</g>
</svg>
