<?xml version="1.0" encoding="utf-8"?>
<!-- Generator: Adobe Illustrator 23.0.4, SVG Export Plug-In . SVG Version: 6.00 Build 0)  -->
<svg version="1.1" id="Layer_1" xmlns="http://www.w3.org/2000/svg" xmlns:xlink="http://www.w3.org/1999/xlink" x="0px" y="0px"
	 viewBox="0 0 166.67 200" style="enable-background:new 0 0 166.67 200;" xml:space="preserve">
<style type="text/css">
	.st0{fill:#D85A24;}
</style>
<g>
	<g>
		<path id="YouTube_6_" class="st0" d="M140.98,146.29H130l0.05-6.38c0-2.83,2.33-5.15,5.17-5.15h0.7c2.85,0,5.18,2.32,5.18,5.15
			L140.98,146.29z M99.81,132.63c-2.78,0-5.06,1.87-5.06,4.16v31.01c0,2.29,2.28,4.15,5.06,4.15c2.8,0,5.08-1.87,5.08-4.15v-31.01
			C104.88,134.5,102.6,132.63,99.81,132.63z M166.67,115.29v58.99c0,14.15-12.27,25.73-27.27,25.73H27.27
			C12.27,200,0,188.42,0,174.27v-58.99c0-14.15,12.27-25.73,27.27-25.73H139.4C154.4,89.56,166.67,101.14,166.67,115.29z
			 M34.75,180.68l-0.01-62.14l13.9,0v-9.21l-37.05-0.06v9.05l11.57,0.03v62.31H34.75z M76.42,127.8H64.83v33.18
			c0,4.8,0.29,7.2-0.02,8.05c-0.94,2.57-5.18,5.31-6.83,0.28c-0.28-0.88-0.03-3.54-0.04-8.1L57.9,127.8H46.37l0.04,32.88
			c0.01,5.04-0.11,8.8,0.04,10.51c0.28,3.02,0.18,6.53,2.98,8.54c5.21,3.76,15.21-0.56,17.71-5.93l-0.02,6.85l9.31,0.01L76.42,127.8
			L76.42,127.8z M113.49,165.79l-0.02-27.62c-0.01-10.52-7.88-16.83-18.57-8.31l0.05-20.53l-11.58,0.02l-0.06,70.87l9.52-0.14
			l0.87-4.41C105.86,186.83,113.51,179.18,113.49,165.79z M149.76,162.13l-8.69,0.05c0,0.34-0.02,0.74-0.02,1.18v4.85
			c0,2.6-2.14,4.71-4.75,4.71h-1.7c-2.61,0-4.75-2.11-4.75-4.71v-0.54v-5.33v-6.88h19.9v-7.49c0-5.47-0.14-10.94-0.59-14.07
			c-1.42-9.9-15.32-11.47-22.34-6.4c-2.2,1.58-3.88,3.7-4.86,6.54c-0.99,2.85-1.48,6.74-1.48,11.68v16.47
			C120.48,189.55,153.72,185.68,149.76,162.13z M105.18,72.74c0.6,1.45,1.53,2.63,2.79,3.52c1.24,0.88,2.84,1.32,4.74,1.32
			c1.67,0,3.15-0.45,4.44-1.38c1.28-0.93,2.37-2.31,3.25-4.16l-0.22,4.55h12.92V21.64h-10.17V64.4c0,2.32-1.91,4.21-4.24,4.21
			c-2.32,0-4.23-1.9-4.23-4.21V21.64h-10.61V58.7c0,4.72,0.09,7.87,0.23,9.46C104.22,69.74,104.59,71.26,105.18,72.74z M66.04,41.71
			c0-5.27,0.44-9.39,1.31-12.36c0.88-2.96,2.46-5.34,4.75-7.13c2.28-1.8,5.2-2.7,8.76-2.7c2.99,0,5.55,0.59,7.69,1.74
			c2.15,1.16,3.81,2.66,4.96,4.51c1.17,1.86,1.97,3.77,2.39,5.72c0.43,1.98,0.65,4.97,0.65,9v13.89c0,5.1-0.2,8.84-0.6,11.22
			c-0.39,2.39-1.24,4.6-2.55,6.68c-1.29,2.05-2.95,3.59-4.97,4.57c-2.04,0.99-4.37,1.47-7.01,1.47c-2.94,0-5.42-0.41-7.47-1.26
			c-2.05-0.84-3.64-2.12-4.76-3.81c-1.14-1.69-1.94-3.76-2.43-6.16c-0.49-2.4-0.72-6.02-0.72-10.83L66.04,41.71L66.04,41.71z
			 M76.16,63.53c0,3.11,2.32,5.65,5.14,5.65c2.82,0,5.13-2.54,5.13-5.65V34.29c0-3.11-2.31-5.65-5.13-5.65
			c-2.82,0-5.14,2.54-5.14,5.65V63.53z M40.4,78.3h12.19l0.01-42.13L67,0.07H53.68l-7.66,26.81L38.26,0H25.06l15.32,36.19L40.4,78.3
			z"/>
	</g>
</g>
</svg>
